<svg width="462" height="150" viewBox="0 0 462 150" fill="none" xmlns="http://www.w3.org/2000/svg">
<circle cx="78" cy="26" r="26" fill="#04A8F0"/>
<path fill-rule="evenodd" clip-rule="evenodd" d="M78 67.0004C51.4904 67.0004 30 45.5101 30 19.0005C31.0797 6.0053 20.0069 6.00068 17.0028 9.52699C16.7737 9.73544 16.5549 9.97235 16.3479 10.2392C6.10076 23.4518 0 40.0465 0 58.0674C0 73.9167 15.0169 84.0207 30.8662 84.0207H125.134C140.983 84.0207 156 73.9167 156 58.0674C156 40.0465 149.899 23.4518 139.652 10.2392C139.441 9.96656 139.217 9.72516 138.982 9.51344C135.957 6.00463 124.922 6.03067 126 19.0044C125.998 45.5122 104.508 67.0004 78 67.0004Z" fill="#686DF1"/>
<path d="M86.2119 145.183L108.085 113.707C112.693 107.076 107.948 98 99.8734 98H78H56.1266C48.052 98 43.3069 107.076 47.9147 113.707L69.7881 145.183C73.7662 150.907 82.2338 150.907 86.2119 145.183Z" fill="#04A8F0"/>
<path d="M242.846 57.8686V118.617C242.304 118.852 241.49 119.048 240.404 119.205C239.397 119.44 238.311 119.557 237.148 119.557C234.745 119.557 233.039 119.127 232.032 118.265C231.024 117.325 230.52 115.797 230.52 113.682V57.8686H209.937C209.549 57.3202 209.201 56.6152 208.89 55.7535C208.658 54.8918 208.542 53.9126 208.542 52.816C208.542 51.0926 208.929 49.8 209.704 48.9384C210.557 47.9983 211.681 47.5283 213.077 47.5283H263.662C263.972 47.9983 264.243 48.6642 264.476 49.5259C264.786 50.3876 264.941 51.3276 264.941 52.3459C264.941 56.0277 263.429 57.8686 260.406 57.8686H242.846Z" fill="#D8E2FF"/>
<path d="M285.201 118.97C283.186 118.97 281.558 118.343 280.317 117.09C279.077 115.837 278.457 114.192 278.457 112.155V54.226C278.457 52.1893 279.077 50.5834 280.317 49.4084C281.558 48.155 283.186 47.5283 285.201 47.5283H323.692C324.08 47.9983 324.39 48.6642 324.623 49.5259C324.933 50.3876 325.088 51.3276 325.088 52.3459C325.088 54.0693 324.662 55.401 323.809 56.341C323.034 57.281 321.948 57.7511 320.553 57.7511H290.783V77.2565H320.204C320.591 77.7265 320.902 78.3924 321.134 79.254C321.444 80.1157 321.599 81.0558 321.599 82.0741C321.599 83.8758 321.173 85.2075 320.32 86.0692C319.545 86.9309 318.46 87.3617 317.064 87.3617H290.783V108.747H324.274C324.584 109.217 324.894 109.883 325.204 110.745C325.514 111.606 325.669 112.546 325.669 113.565C325.669 115.367 325.243 116.737 324.39 117.677C323.615 118.539 322.53 118.97 321.134 118.97H285.201Z" fill="#D8E2FF"/>
<path d="M369.409 57.8686V118.617C368.866 118.852 368.052 119.048 366.967 119.205C365.959 119.44 364.874 119.557 363.711 119.557C361.308 119.557 359.602 119.127 358.594 118.265C357.586 117.325 357.082 115.797 357.082 113.682V57.8686H336.5C336.112 57.3202 335.763 56.6152 335.453 55.7535C335.22 54.8918 335.104 53.9126 335.104 52.816C335.104 51.0926 335.492 49.8 336.267 48.9384C337.12 47.9983 338.244 47.5283 339.639 47.5283H390.224C390.534 47.9983 390.806 48.6642 391.038 49.5259C391.348 50.3876 391.503 51.3276 391.503 52.3459C391.503 56.0277 389.992 57.8686 386.968 57.8686H369.409Z" fill="#D8E2FF"/>
<path d="M462 93.8244C462 97.8195 461.341 101.462 460.023 104.752C458.783 108.042 456.922 110.862 454.441 113.212C452.038 115.562 449.053 117.364 445.487 118.617C441.999 119.871 437.967 120.497 433.393 120.497C428.897 120.497 424.866 119.871 421.299 118.617C417.811 117.364 414.826 115.562 412.345 113.212C409.942 110.862 408.081 108.042 406.763 104.752C405.523 101.462 404.903 97.8195 404.903 93.8244V47.5283C405.446 47.3717 406.26 47.215 407.345 47.0583C408.43 46.8233 409.554 46.7058 410.717 46.7058C412.965 46.7058 414.632 47.1367 415.718 47.9983C416.803 48.86 417.346 50.3876 417.346 52.5809V93.1194C417.346 98.6812 418.857 102.911 421.881 105.81C424.982 108.708 428.819 110.157 433.393 110.157C435.719 110.157 437.851 109.805 439.789 109.1C441.727 108.316 443.433 107.22 444.906 105.81C446.379 104.4 447.503 102.637 448.278 100.522C449.131 98.407 449.557 95.9394 449.557 93.1194V47.5283C450.1 47.3717 450.914 47.215 451.999 47.0583C453.085 46.8233 454.209 46.7058 455.372 46.7058C457.62 46.7058 459.287 47.1367 460.372 47.9983C461.457 48.86 462 50.3876 462 52.5809V93.8244Z" fill="#D8E2FF"/>
</svg>
